<?xml version="1.0" ?><!DOCTYPE svg  PUBLIC '-//W3C//DTD SVG 1.1//EN'  'http://www.w3.org/Graphics/SVG/1.1/DTD/svg11.dtd'><svg fill-rule="evenodd" height="75pt" overflow="visible" stroke-linejoin="bevel" stroke-width="0.501" version="1.1" viewBox="0 0 75 75" width="75pt" xmlns="http://www.w3.org/2000/svg" xmlns:xlink="http://www.w3.org/1999/xlink"><defs/><g fill="none" font-family="Times New Roman" font-size="16" id="Document" stroke="black" transform="scale(1 -1)"><g id="Spread" transform="translate(0 -75)"><g id="Layer 1"><path d="M 36.799,1.013 C 33.828,1.013 28.373,1.23 23.8,2.169 C 21.529,2.636 19.375,3.3 17.855,4.267 C 17.089,4.755 16.427,5.354 16.013,6.099 C 15.593,6.852 15.458,7.701 15.657,8.611 C 15.634,8.744 15.641,8.887 15.683,9.028 C 17.239,14.301 18.928,21.134 19.209,27.389 C 19.299,29.428 19.578,31.646 19.925,33.914 C 19.518,33.646 19.055,33.495 18.571,33.456 C 17.638,33.38 16.704,33.717 15.957,34.227 C 15.207,34.74 14.551,35.493 14.227,36.381 C 14.104,36.717 14.03,37.071 14.017,37.432 C 11.614,36.45 9.21,37.332 7.732,38.86 C 6.035,40.61 5.507,43.19 7.033,45.021 L 7.146,45.141 L 6.999,45.244 C 6.023,46.02 5.343,47.064 5.131,48.169 C 4.816,49.805 5.565,51.369 7.401,52.205 C 6.567,53.585 6.623,55.252 7.195,56.473 C 7.511,57.15 8.042,57.756 8.733,58.1 L 8.69,58.173 C 8.549,58.388 8.418,58.611 8.307,58.84 L 8.289,58.878 C 7.105,61.61 8.506,64.751 11.371,65.144 L 11.604,65.159 L 11.613,65.32 C 11.772,66.59 12.428,67.838 13.329,68.696 C 14.277,69.598 15.597,70.134 16.975,69.799 L 17.267,69.696 L 17.594,70.224 C 18.274,71.167 19.346,71.993 20.386,72.53 C 21.912,73.316 24.02,73.814 25.59,72.712 C 27.043,73.744 28.486,74.227 29.887,73.9 C 30.965,73.647 31.854,72.951 32.612,71.969 L 33.009,72.347 C 34.303,73.523 35.774,74.33 37.295,74.362 C 38.914,74.396 40.332,73.555 41.449,71.904 L 41.755,71.39 L 42.063,71.669 C 43.506,72.85 45.327,72.862 46.8,72.288 C 47.904,71.858 49.05,70.965 49.609,69.886 L 49.778,69.453 L 50.316,69.523 C 51.369,69.554 52.353,69.061 53.038,68.36 C 53.695,67.686 54.187,66.716 54.235,65.701 L 54.209,65.101 L 54.535,64.897 C 56.224,63.681 57.5,60.399 55.647,58.581 C 55.463,58.401 55.225,58.312 54.987,58.313 C 54.995,58.265 54.999,58.216 54.999,58.167 C 54.999,55.983 55.053,53.733 55.118,51.452 C 55.266,51.509 55.427,51.529 55.59,51.506 C 56.944,51.31 59.492,51.894 61.45,51.664 C 65.333,51.206 67.709,45.564 69.065,40.343 C 70.499,34.829 71.083,28.627 70.791,25.555 C 70.483,22.318 69.633,20.275 68.028,18.803 C 66.498,17.399 64.355,16.608 61.834,15.632 C 61.42,15.472 60.716,15.153 60.051,14.938 C 59.732,14.835 59.385,14.742 59.018,14.681 C 59.167,14.126 59.316,13.56 59.453,13.001 C 59.693,12.019 59.904,11.025 60.025,10.077 C 60.145,9.133 60.181,8.196 60.049,7.34 C 59.925,6.532 59.645,5.755 59.109,5.116 C 59.086,4.757 58.857,4.428 58.499,4.296 C 56.494,3.555 52.294,2.16 49.025,1.625 C 46.973,1.289 44.334,1.138 42.02,1.069 C 39.697,1 37.656,1.013 36.799,1.013 Z M 48.722,3.476 C 51.594,3.946 55.315,5.142 57.41,5.895 C 57.45,6.027 57.519,6.152 57.619,6.261 C 57.904,6.57 58.102,7.012 58.196,7.625 C 58.291,8.243 58.274,8.988 58.165,9.84 C 58.057,10.687 57.865,11.604 57.632,12.556 C 57.399,13.51 57.132,14.471 56.877,15.426 C 56.873,15.44 56.869,15.455 56.882,15.467 C 56.843,15.494 56.841,15.536 56.841,15.578 L 56.841,16.197 C 56.841,16.714 57.261,17.134 57.779,17.134 C 58.166,17.134 58.499,16.897 58.642,16.561 L 58.65,16.521 L 59.049,16.601 C 59.187,16.635 59.329,16.676 59.474,16.723 C 60.086,16.92 60.575,17.155 61.157,17.381 C 63.809,18.408 65.551,19.075 66.761,20.185 C 67.895,21.225 68.64,22.749 68.924,25.732 C 69.189,28.516 68.649,34.49 67.251,39.872 C 65.779,45.534 63.607,49.521 61.231,49.801 C 59.772,49.973 57.602,49.546 55.979,49.596 L 55.748,49.615 L 55.488,49.478 C 55.206,49.384 54.895,49.38 54.586,49.465 C 54.489,49.491 54.396,49.525 54.308,49.563 C 54.023,49.685 53.831,49.933 53.766,50.214 C 53.47,50.365 53.264,50.668 53.254,51.024 C 53.214,52.404 53.177,53.782 53.153,55.146 C 53.065,55.054 52.974,54.964 52.881,54.878 C 52.496,54.521 51.975,54.123 51.428,53.923 L 51.276,53.876 L 51.05,53.795 C 50.946,53.759 50.845,53.725 50.747,53.695 C 50.67,50.692 50.697,46.935 50.47,45.727 C 50.288,44.757 50.302,40.2 50.557,37.592 C 51.284,30.149 51.981,21.155 53.432,16.244 C 53.717,15.198 54.254,13.524 54.469,12.024 C 54.663,10.67 54.719,8.715 53.195,7.861 C 50.493,6.344 43.245,5.86 36.677,5.953 C 31.593,6.025 23.571,6.528 21.934,8.141 L 21.871,8.208 C 21.763,8.323 21.686,8.464 21.648,8.617 C 21.255,10.167 21.795,13.23 22.329,16.079 C 22.896,19.106 23.519,22.103 23.561,23.873 L 23.565,23.939 C 23.911,27.614 24.446,36.364 25.28,40.705 C 24.582,41.125 23.953,41.688 23.462,42.348 L 23.253,42.67 C 22.507,37.572 21.287,31.918 21.082,27.306 C 20.792,20.855 19.068,13.89 17.509,8.59 C 17.526,8.477 17.522,8.358 17.495,8.24 C 17.384,7.76 17.452,7.368 17.651,7.01 C 17.863,6.629 18.254,6.236 18.861,5.849 C 20.086,5.07 21.967,4.46 24.177,4.006 C 28.568,3.104 33.878,2.888 36.799,2.888 C 38.591,2.888 44.84,2.84 48.722,3.476 Z M 52.278,9.496 C 52.584,9.668 52.828,10.257 52.613,11.757 C 52.42,13.106 51.943,14.576 51.629,15.731 C 50.116,20.846 49.403,30.11 48.69,37.409 C 48.51,39.243 48.435,42.114 48.486,44.114 C 48.455,44.106 48.424,44.099 48.394,44.093 C 48.166,44.043 47.906,44.001 47.625,43.965 C 47.064,43.894 46.376,43.842 45.612,43.805 C 44.081,43.731 42.192,43.716 40.294,43.742 C 38.393,43.769 36.47,43.836 34.867,43.929 C 34.066,43.975 33.34,44.028 32.735,44.085 C 32.613,44.096 32.494,44.108 32.379,44.12 C 32.377,43.902 32.377,43.693 32.387,43.5 C 32.394,43.36 32.369,43.22 32.315,43.091 C 31.194,40.419 29.07,39.586 27.057,40 C 26.339,36.007 25.854,28.609 25.506,24.583 L 25.432,23.767 L 25.39,23.033 C 25.222,21.057 24.648,18.271 24.172,15.734 C 23.653,12.961 23.301,10.73 23.396,9.528 L 23.423,9.351 L 23.667,9.24 C 24.281,8.996 25.579,8.665 27.693,8.395 C 30.2,8.074 33.405,7.875 36.704,7.828 C 43.458,7.732 50.139,8.295 52.278,9.496 Z M 31.624,14.419 C 31.624,15.112 32.188,15.676 32.881,15.676 C 33.574,15.676 34.138,15.112 34.138,14.419 C 34.138,13.726 33.574,13.162 32.881,13.162 C 32.188,13.162 31.624,13.726 31.624,14.419 Z M 40.174,16.444 C 40.174,17.137 40.738,17.701 41.431,17.701 C 42.124,17.701 42.688,17.137 42.688,16.444 C 42.688,15.751 42.124,15.187 41.431,15.187 C 40.738,15.187 40.174,15.751 40.174,16.444 Z M 43.696,19.816 C 42.983,20.25 42.469,20.989 42.258,21.763 C 42.044,22.543 42.107,23.508 42.79,24.246 C 43.465,24.977 44.542,25.263 45.871,25.16 C 45.993,25.151 46.113,25.117 46.222,25.062 C 47.254,24.539 47.83,23.506 47.877,22.513 C 47.916,21.669 47.56,20.786 46.747,20.29 L 46.726,20.236 C 46.651,20.072 46.528,19.927 46.363,19.826 C 45.433,19.256 44.456,19.354 43.696,19.816 Z M 56.558,19.863 C 56.359,19.97 56.215,20.138 56.136,20.332 C 56.072,20.298 56.003,20.27 55.93,20.251 C 55.43,20.119 54.916,20.418 54.784,20.918 C 54.261,22.897 53.849,26.213 53.587,29.265 C 53.454,30.817 53.358,32.332 53.304,33.625 C 53.25,34.907 53.238,36.001 53.28,36.696 C 53.427,39.128 53.449,41.675 53.416,44.273 C 53.413,44.478 53.477,44.669 53.588,44.825 C 53.587,44.848 53.587,44.871 53.589,44.895 C 53.615,45.411 54.056,45.81 54.573,45.784 C 55.986,45.713 57.586,45.913 59.091,45.239 C 61.415,44.197 62.976,39.686 63.802,36.315 C 64.78,32.326 65.25,27.819 64.737,25.301 C 64.432,23.806 63.121,22.116 61.681,20.986 C 60.261,19.873 58.252,18.946 56.558,19.863 Z M 35.599,22.144 C 35.599,22.837 36.163,23.401 36.856,23.401 C 37.549,23.401 38.113,22.837 38.113,22.144 C 38.113,21.451 37.549,20.887 36.856,20.887 C 36.163,20.887 35.599,21.451 35.599,22.144 Z M 45.014,21.309 L 45.055,21.382 C 45.172,21.591 45.369,21.756 45.618,21.827 C 45.904,21.908 46.019,22.107 46.004,22.424 C 45.99,22.7 45.86,22.994 45.633,23.207 L 45.516,23.302 L 45.367,23.306 C 44.597,23.308 44.28,23.096 44.167,22.974 C 44.044,22.841 43.971,22.607 44.066,22.257 C 44.164,21.901 44.405,21.58 44.669,21.419 C 44.779,21.352 44.889,21.312 45.014,21.309 Z M 60.524,22.461 C 61.785,23.45 62.719,24.79 62.9,25.676 C 63.326,27.766 62.944,31.939 61.981,35.869 C 61.506,37.809 60.904,39.624 60.229,41.03 C 59.521,42.504 58.837,43.298 58.324,43.528 C 57.457,43.916 56.459,43.875 55.295,43.888 C 55.321,41.406 55.294,38.949 55.151,36.583 C 55.116,35.991 55.124,34.979 55.177,33.703 C 55.23,32.44 55.325,30.952 55.455,29.426 C 55.586,27.898 55.752,26.339 55.947,24.932 C 56.133,23.579 56.343,22.392 56.566,21.516 C 56.833,21.657 57.164,21.666 57.451,21.512 C 58.077,21.173 59.229,21.446 60.524,22.461 Z M 30.027,25.277 C 29.53,25.494 29.093,25.856 28.748,26.251 C 28.104,26.989 27.513,28.18 27.791,29.259 C 28.129,30.573 29.207,31.339 30.286,31.568 C 31.348,31.793 32.613,31.549 33.397,30.597 C 34.192,29.633 34.402,28.324 34.067,27.267 C 33.796,26.412 33.144,25.7 32.207,25.495 L 32.092,25.471 C 32.005,25.375 31.903,25.3 31.786,25.247 C 31.164,24.964 30.531,25.058 30.027,25.277 Z M 30.659,27.058 L 30.77,27.157 C 30.964,27.299 31.212,27.367 31.468,27.327 C 31.966,27.249 32.171,27.491 32.279,27.833 C 32.425,28.294 32.334,28.939 31.95,29.404 C 31.719,29.685 31.225,29.85 30.675,29.734 C 30.142,29.621 29.734,29.288 29.606,28.792 C 29.553,28.583 29.69,28.024 30.161,27.484 C 30.334,27.284 30.492,27.157 30.623,27.078 L 30.659,27.058 Z M 41.224,29.269 C 41.224,29.962 41.788,30.526 42.481,30.526 C 43.174,30.526 43.738,29.962 43.738,29.269 C 43.738,28.576 43.174,28.012 42.481,28.012 C 41.788,28.012 41.224,28.576 41.224,29.269 Z M 36.724,33.394 C 36.724,34.087 37.288,34.651 37.981,34.651 C 38.674,34.651 39.238,34.087 39.238,33.394 C 39.238,32.701 38.674,32.137 37.981,32.137 C 37.288,32.137 36.724,32.701 36.724,33.394 Z M 41.753,35.111 C 40.605,35.492 39.999,36.503 39.774,37.446 C 39.55,38.384 39.641,39.471 40.11,40.291 C 40.174,40.403 40.258,40.497 40.355,40.57 L 40.513,40.674 C 40.684,40.848 40.868,40.958 41.034,41.029 C 41.544,41.248 42.162,41.24 42.596,41.194 C 43.049,41.146 43.55,41.031 43.896,40.856 C 43.952,40.828 44.015,40.792 44.079,40.749 C 45.402,39.841 45.683,38.184 45.285,36.933 C 45.082,36.297 44.679,35.681 44.045,35.302 C 43.389,34.909 42.588,34.834 41.753,35.111 Z M 19.308,35.976 C 19.502,36.364 19.931,36.558 20.338,36.473 C 20.663,38.421 21.006,40.371 21.292,42.239 C 20.889,42.206 20.481,42.229 20.089,42.301 C 18.696,42.555 17.271,43.421 16.433,44.785 L 16.155,45.315 L 16.117,45.403 L 15.948,45.818 C 15.906,45.994 15.891,46.177 15.905,46.363 C 15.918,46.529 15.951,46.689 16.001,46.84 C 16.16,47.333 16.689,47.603 17.181,47.443 C 17.674,47.284 17.944,46.755 17.781,46.254 L 17.829,46.152 C 18.301,45.074 19.368,44.339 20.426,44.146 C 21.464,43.957 22.224,44.287 22.526,45.041 C 22.871,45.903 24.135,45.786 24.316,44.875 C 24.579,43.554 25.805,42.297 27.183,41.9 C 28.257,41.59 29.43,41.796 30.255,43.159 L 30.51,43.665 L 30.502,44.179 C 30.511,44.935 30.552,45.625 30.4,46.12 C 30.163,46.889 30.945,47.581 31.679,47.252 C 33.101,46.615 34.26,47.072 35.067,48.042 C 35.918,49.067 36.297,50.609 35.963,51.89 C 35.757,52.683 36.601,53.341 37.319,52.95 C 38.005,52.576 38.384,52.573 38.577,52.617 C 38.766,52.661 38.963,52.793 39.194,53.107 C 39.707,53.805 40.083,55.068 40.781,55.708 C 41.142,56.038 41.697,56.036 42.055,55.701 C 42.234,55.534 42.87,55.229 43.653,55.095 C 44.505,54.949 44.895,55.109 44.946,55.163 L 45.099,55.301 C 45.1,55.306 45.101,55.31 45.103,55.315 C 45.238,55.815 45.754,56.11 46.253,55.974 C 47.303,55.689 47.94,55.395 48.517,55.294 C 48.764,55.251 49.017,55.24 49.336,55.283 C 49.664,55.328 50.077,55.432 50.641,55.639 C 50.672,55.651 50.704,55.661 50.736,55.669 C 50.796,55.684 50.917,55.733 51.09,55.845 C 51.256,55.952 51.434,56.093 51.605,56.252 C 51.776,56.411 51.927,56.576 52.043,56.723 C 52.136,56.843 52.187,56.927 52.217,56.986 L 52.239,57.057 C 52.362,57.445 52.724,57.706 53.124,57.709 C 53.124,57.862 53.124,58.014 53.124,58.167 C 53.124,58.684 53.544,59.104 54.062,59.104 L 54.064,59.104 C 54.019,59.393 54.109,59.699 54.334,59.92 C 55.027,60.6 54.549,62.357 53.696,63.171 L 53.348,63.428 L 53.247,63.426 C 53.17,63.422 53.076,63.418 52.969,63.423 L 52.917,63.426 C 52.218,63.471 51.813,64.242 52.173,64.843 C 52.532,65.442 52.37,66.36 51.697,67.05 C 51.078,67.683 50.274,67.888 49.505,67.323 C 48.78,66.79 47.789,67.495 48.055,68.355 C 48.201,68.828 47.572,69.975 46.119,70.541 C 44.837,71.042 43.361,70.897 42.418,69.176 C 42.041,68.488 41.03,68.542 40.729,69.267 C 39.671,71.82 38.421,72.511 37.334,72.488 C 36.126,72.463 34.651,71.56 33.212,69.855 C 32.795,69.36 32.012,69.428 31.686,69.987 C 30.915,71.308 30.164,71.909 29.46,72.074 C 28.857,72.214 28.068,72.087 27.011,71.409 L 26.617,71.137 L 26.539,71.028 C 26.517,70.975 26.505,70.914 26.503,70.839 C 26.488,70.322 26.056,69.914 25.539,69.928 C 25.022,69.943 24.614,70.375 24.628,70.892 C 24.629,70.953 24.633,71.015 24.639,71.076 C 23.939,71.66 22.657,71.592 21.246,70.864 C 19.706,70.07 18.79,68.904 18.759,68.336 C 18.718,67.602 17.884,67.198 17.283,67.621 C 16.322,68.297 15.401,68.078 14.621,67.337 C 13.788,66.545 13.328,65.302 13.481,64.356 C 13.582,63.734 13.05,63.191 12.425,63.278 C 10.467,63.551 9.493,61.917 9.799,60.306 L 10.005,59.637 L 10.266,59.187 C 10.579,58.714 10.991,58.252 11.342,57.879 C 12.045,57.131 11.191,55.954 10.261,56.388 C 9.747,56.629 9.259,56.46 8.893,55.678 C 8.57,54.987 8.538,54.064 8.933,53.305 L 9.112,53.018 L 9.253,52.878 C 9.497,52.589 9.662,52.25 9.751,51.879 C 9.87,51.375 9.559,50.869 9.056,50.749 C 8.972,50.729 8.888,50.721 8.806,50.724 C 7.938,50.483 7.46,50.113 7.214,49.767 C 6.963,49.415 6.882,48.992 6.972,48.523 C 7.161,47.54 8.113,46.416 9.574,45.979 C 10.304,45.76 10.48,44.802 9.876,44.337 C 9.606,44.13 9.312,44.081 9.141,44.066 C 9.012,44.054 8.87,44.057 8.752,44.063 L 8.714,44.065 L 8.679,44.036 C 7.521,42.928 8.013,41.264 9.079,40.164 C 10.347,38.855 12.442,38.253 14.45,39.85 C 14.855,40.172 15.445,40.105 15.767,39.7 C 15.79,39.67 15.812,39.639 15.831,39.607 C 15.841,39.602 15.85,39.596 15.86,39.59 C 16.292,39.305 16.411,38.723 16.126,38.291 C 15.851,37.874 15.832,37.452 15.988,37.023 C 16.155,36.567 16.527,36.109 17.016,35.775 C 17.508,35.439 18.021,35.292 18.418,35.325 C 18.759,35.353 19.074,35.511 19.308,35.976 Z M 43.082,36.91 C 43.241,37.006 43.402,37.2 43.498,37.502 C 43.674,38.058 43.559,38.679 43.191,39.056 L 43.029,39.191 C 42.994,39.206 42.929,39.229 42.829,39.254 C 42.704,39.286 42.555,39.313 42.399,39.329 C 42.243,39.346 42.097,39.349 41.975,39.341 C 41.942,39.338 41.914,39.335 41.869,39.328 L 41.82,39.259 C 41.784,39.21 41.742,39.166 41.697,39.126 L 41.615,39.065 L 41.573,38.894 C 41.514,38.593 41.513,38.233 41.598,37.882 C 41.731,37.323 42.018,36.998 42.344,36.89 C 42.721,36.765 42.944,36.828 43.082,36.91 Z M 45.521,45.678 C 46.261,45.713 46.895,45.762 47.388,45.825 C 47.635,45.857 47.835,45.89 47.991,45.924 C 48.068,45.941 48.128,45.957 48.174,45.971 L 48.245,45.997 C 48.366,46.054 48.494,46.084 48.618,46.016 C 48.62,46.04 48.623,46.057 48.627,46.074 C 48.805,47.021 48.793,50.378 48.863,53.381 C 48.632,53.386 48.411,53.409 48.195,53.447 C 47.596,53.551 47.07,53.76 46.397,53.976 C 46.372,53.946 46.347,53.917 46.321,53.889 C 45.316,52.805 43.23,53.098 41.851,53.686 L 41.694,53.765 L 41.518,53.411 C 41.315,52.99 41.065,52.487 40.705,51.996 C 40.333,51.49 39.793,50.972 38.995,50.79 C 38.796,50.744 38.593,50.722 38.386,50.722 L 37.95,50.769 L 37.913,50.166 C 37.766,48.941 37.267,47.757 36.509,46.844 C 36.164,46.429 35.764,46.068 35.316,45.781 C 36.818,45.7 38.576,45.641 40.319,45.617 C 42.198,45.591 44.044,45.606 45.521,45.678 Z" fill="#000000" fill-rule="evenodd" marker-end="none" marker-start="none" stroke="none" stroke-miterlimit="79.8403193612775" stroke-width="0.5"/></g></g></g></svg>