<?xml version="1.0" ?><!DOCTYPE svg  PUBLIC '-//W3C//DTD SVG 1.1//EN'  'http://www.w3.org/Graphics/SVG/1.1/DTD/svg11.dtd'><svg enable-background="new 0 0 64 64" id="Layer_1" version="1.1" viewBox="0 0 64 64" xml:space="preserve" xmlns="http://www.w3.org/2000/svg" xmlns:xlink="http://www.w3.org/1999/xlink"><g><g><path d="M37.2,6.4c1.5-1.6,1.5-4.1-0.1-5.6c-0.5-0.5-1.2-0.8-2-0.8c-1.1,0-2.2,0.6-2.8,1.1     C31.5,0.6,30.5,0,29.4,0c-0.8,0-1.5,0.3-2,0.8c-1.5,1.5-1.6,4-0.1,5.6l4.2,4.3c0.2,0.2,0.4,0.3,0.7,0.3s0.5-0.1,0.7-0.3L37.2,6.4     z M28.8,5c-0.8-0.8-0.7-2,0-2.8C29,2.1,29.1,2,29.4,2c0.6,0,1.4,0.4,2.2,1.1c0.4,0.4,1,0.4,1.4,0C33.6,2.4,34.5,2,35.1,2     c0.3,0,0.4,0.1,0.6,0.2c0.8,0.8,0.8,2,0,2.8l-3.5,3.5L28.8,5z" fill="#4D4D4D"/><path d="M56.6,60.7c-0.1-0.5-0.7-0.9-1.2-0.7l-2.8,0.7L49,47.2c0.7-0.4,1.3-1,1.8-1.9c2.5-4.3,2.3-13.5-0.4-23.4     c-1-3.2-1.9-5.1-2.9-7.2c-0.2-0.4-0.4-0.9-0.6-1.4c-0.2-0.4-0.7-0.7-1.2-0.6l-12.6,3.4c-0.5,0.1-0.8,0.6-0.7,1.1     c0.1,0.8,0.1,1.5,0.2,2.2c0.1,1.8,0.2,3.5,1,6.9C37.2,39.9,43,47.2,47,47.6l3.7,13.7L48,62c-0.5,0.1-0.8,0.7-0.7,1.2     c0.1,0.4,0.5,0.7,1,0.7c0.1,0,0.2,0,0.3,0l7.4-2C56.5,61.8,56.8,61.3,56.6,60.7z M45.4,14.9c0.1,0.2,0.2,0.4,0.3,0.6     c0.9,2,1.8,4,2.8,7c0.2,0.6,0.3,1.2,0.5,1.9c0,0,0,0-0.1,0l-13.5,0.9c-0.6-2.8-0.7-4.4-0.9-6c0-0.5-0.1-0.9-0.1-1.4L45.4,14.9z      M35.7,26.6L49,25.6c0.1,0,0.2-0.1,0.2-0.1c2.1,9.2,1.5,16.1-0.2,18.9c-0.4,0.7-0.8,1.1-1.3,1.2c-0.1,0-0.2,0-0.3,0     C44.7,45.6,39.2,39,35.7,26.6z" fill="#4D4D4D"/><path d="M30.9,16.2l-12.6-3.4c-0.5-0.1-1,0.1-1.2,0.6c-0.2,0.5-0.4,0.9-0.6,1.4c-1,2.1-1.9,4.1-2.9,7.3     c-2.7,9.9-2.8,19.1-0.4,23.3c0.5,0.9,1.1,1.5,1.8,1.9l-3.6,13.6L8.6,60c-0.5-0.1-1.1,0.2-1.2,0.7s0.2,1.1,0.7,1.2l7.4,2     c0.1,0,0.2,0,0.3,0c0.4,0,0.8-0.3,1-0.7c0.1-0.5-0.2-1.1-0.7-1.2l-2.8-0.7L17,47.6c4.1-0.4,9.9-7.7,13.5-21.2     c0.8-3.4,0.9-5.1,1-6.9c0-0.7,0.1-1.4,0.2-2.2C31.7,16.8,31.4,16.3,30.9,16.2z M18.3,15.6c0.1-0.2,0.2-0.4,0.3-0.6l11,2.9     c0,0.5-0.1,1-0.1,1.4c-0.1,1.6-0.2,3.1-0.8,5.9l-13.5-0.9c0,0,0,0-0.1,0c0.1-0.6,0.3-1.2,0.5-1.8C16.4,19.5,17.3,17.6,18.3,15.6z      M16.6,45.6c-0.1,0-0.2,0-0.3,0c-0.5-0.1-0.9-0.6-1.3-1.2c-1.7-2.9-2.2-9.7-0.2-18.9c0.1,0.1,0.2,0.1,0.2,0.1l13.2,1.1     C24.8,39,19.3,45.6,16.6,45.6z" fill="#4D4D4D"/></g></g></svg>